<?xml version="1.0" encoding="UTF-8" standalone="no"?>
<svg
   xmlns:dc="http://purl.org/dc/elements/1.1/"
   xmlns:cc="http://creativecommons.org/ns#"
   xmlns:rdf="http://www.w3.org/1999/02/22-rdf-syntax-ns#"
   xmlns:svg="http://www.w3.org/2000/svg"
   xmlns="http://www.w3.org/2000/svg"
   xmlns:sodipodi="http://sodipodi.sourceforge.net/DTD/sodipodi-0.dtd"
   xmlns:inkscape="http://www.inkscape.org/namespaces/inkscape"
   height="24"
   version="1.1"
   width="24"
   id="svg2"
   inkscape:version="0.91 r13725"
   sodipodi:docname="muted.svg">
  <metadata
     id="metadata20">
    <rdf:RDF>
      <cc:Work
         rdf:about="">
        <dc:format>image/svg+xml</dc:format>
        <dc:type
           rdf:resource="http://purl.org/dc/dcmitype/StillImage" />
        <dc:title />
      </cc:Work>
    </rdf:RDF>
  </metadata>
  <defs
     id="defs18" />
  <sodipodi:namedview
     pagecolor="#ffffff"
     bordercolor="#666666"
     borderopacity="1"
     objecttolerance="10"
     gridtolerance="10"
     guidetolerance="10"
     inkscape:pageopacity="0"
     inkscape:pageshadow="2"
     inkscape:window-width="1920"
     inkscape:window-height="1056"
     id="namedview16"
     showgrid="false"
     inkscape:zoom="45.254834"
     inkscape:cx="17.076662"
     inkscape:cy="4.9125904"
     inkscape:window-x="0"
     inkscape:window-y="24"
     inkscape:window-maximized="1"
     inkscape:current-layer="svg2" />
  <g
     transform="translate(0 -1028.4)"
     id="g4">
    <path
       d="m19 1038.4c0.552 0 1 0.4 1 1v1c0 4-3.056 7.4-7 7.9v2.1h6c0.552 0 1 0.4 1 1 0 0.5-0.448 1-1 1h-14c-0.5523 0-1-0.5-1-1 0-0.6 0.4477-1 1-1h6v-2.1c-3.9444-0.5-7-3.9-7-7.9v-1c0-0.6 0.4477-1 1-1s1 0.4 1 1v1c0 3.3 2.6863 6 6 6 3.314 0 6-2.7 6-6v-1c0-0.6 0.448-1 1-1z"
       fill="#95a5a6"
       id="path6" />
    <path
       d="m12 1028.4c2.209 0 4 1.8 4 4v8c0 2.2-1.791 4-4 4-2.2091 0-4-1.8-4-4v-8c0-2.2 1.7909-4 4-4z"
       fill="#bdc3c7"
       id="path8" />
    <path
       d="m12 1028.4v16c-2.2091 0-4-1.8-4-4v-8c0-2.2 1.7909-4 4-4z"
       fill="#95a5a6"
       id="path10" />
    <path
       d="m16 1033.4v1h-2v-1h2zm0 2v1h-2v-1h2zm0 2v1h-2v-1h2z"
       fill="#95a5a6"
       id="path12" />
    <path
       d="m10 1033.4v1h-2v-1h2zm0 2v1h-2v-1h2zm0 2v1h-2v-1h2z"
       fill="#7f8c8d"
       id="path14" />
  </g>
  <g
     id="g3406"
     transform="matrix(0.43583535,0,0,0.43583535,14.002618,-434.23565)">
    <path
       id="path3408"
       transform="translate(0,1029.4)"
       d="M 22,12 C 22,17.523 17.523,22 12,22 6.4772,22 2,17.523 2,12 2,6.4772 6.4772,2 12,2 17.523,2 22,6.4772 22,12 Z"
       inkscape:connector-curvature="0"
       style="fill:#c0392b" />
    <path
       id="path3410"
       transform="translate(0,1028.4)"
       d="M 22,12 C 22,17.523 17.523,22 12,22 6.4772,22 2,17.523 2,12 2,6.4772 6.4772,2 12,2 17.523,2 22,6.4772 22,12 Z"
       inkscape:connector-curvature="0"
       style="fill:#e74c3c" />
    <path
       id="path3412"
       d="m 7.0503,1037.8 3.5357,3.6 -3.5357,3.5 1.4142,1.4 3.5355,-3.5 3.536,3.5 1.414,-1.4 -3.536,-3.5 3.536,-3.6 -1.414,-1.4 -3.536,3.5 -3.5355,-3.5 -1.4142,1.4 z"
       inkscape:connector-curvature="0"
       style="fill:#c0392b" />
    <path
       id="path3414"
       d="m 7.0503,1036.8 3.5357,3.6 -3.5357,3.5 1.4142,1.4 3.5355,-3.5 3.536,3.5 1.414,-1.4 -3.536,-3.5 3.536,-3.6 -1.414,-1.4 -3.536,3.5 -3.5355,-3.5 -1.4142,1.4 z"
       inkscape:connector-curvature="0"
       style="fill:#ecf0f1" />
  </g>
</svg>
